<svg xmlns="http://www.w3.org/2000/svg" xml:space="preserve" width="100%" height="100%" version="1.0" style="shape-rendering:geometricPrecision; text-rendering:geometricPrecision; image-rendering:optimizeQuality; fill-rule:evenodd; clip-rule:evenodd"
viewBox="0 0 1534 1514"
xmlns:xlink="http://www.w3.org/1999/xlink">
<path class="fil0" d="M753 1506l5 -528c-62,-14 -120,5 -172,-15 -7,-46 -15,-172 1,-215 50,-40 116,-2 163,-25 45,-46 -86,-416 246,-455 39,-5 78,-5 117,-6 63,-1 85,-10 108,14 31,33 17,154 5,194 -57,15 -166,-8 -205,33 -27,28 -26,168 -22,194l8 22c7,19 131,9 175,11 22,1 40,1 51,18 19,39 -7,168 -17,214 -55,21 -146,8 -215,12 -10,77 -4,367 -4,486 0,76 25,49 252,50 334,0 279,-175 279,-517 0,-253 14,-548 -1,-796 -6,-112 -89,-190 -202,-193 -168,-6 -1133,-7 -1183,10 -111,36 -139,120 -138,259l-1 796c1,113 -21,283 40,359 80,98 169,82 317,82 86,0 324,11 393,-4z"/>
</svg>
