<svg xmlns="http://www.w3.org/2000/svg" xml:space="preserve" width="100%" height="100%" version="1.0" style="shape-rendering:geometricPrecision; text-rendering:geometricPrecision; image-rendering:optimizeQuality; fill-rule:evenodd; clip-rule:evenodd"
viewBox="0 0 1653 1633"
 xmlns:xlink="http://www.w3.org/1999/xlink">
  <path class="fil0" d="M533 155c198,-10 458,-12 655,3 218,16 301,139 309,359 7,202 13,456 -3,655 -18,220 -141,296 -361,307 -199,9 -467,12 -663,-3 -219,-16 -306,-132 -314,-354 -7,-202 -15,-470 4,-669 20,-223 145,-287 373,-298zm25 -149c-128,4 -238,16 -337,72 -74,42 -148,124 -182,224 -54,160 -38,594 -33,786 8,268 91,437 303,506 162,53 594,38 787,33 224,-6 429,-52 516,-294 54,-149 41,-603 35,-787 -9,-268 -90,-436 -306,-509 -149,-50 -602,-37 -783,-31z"/>
  <path class="fil0" d="M557 867c-31,-161 88,-294 221,-317 360,-62 449,475 93,534 -160,26 -289,-89 -314,-217zm-150 0c25,215 220,391 468,364 216,-23 399,-218 371,-464 -25,-215 -224,-394 -472,-364 -215,25 -398,216 -367,464z"/>
  <path class="fil0" d="M1357 419c51,-125 -134,-182 -180,-80 -59,128 132,199 180,80z"/>
</svg>
