<svg xmlns="http://www.w3.org/2000/svg" viewBox="0 0 10935 10935">
  <path class="fil0" d="M4252 4305c0,-597 521,-1164 1129,-1164 361,0 635,50 923,312 707,647 310,2016 -853,2016 -617,0 -1199,-544 -1199,-1164zm-2399 -141l0 318c0,972 1220,2707 1744,3407 92,122 156,196 247,317l1298 1559c100,108 234,174 274,326 135,-36 222,-156 307,-258l1069 -1259c88,-113 172,-211 267,-332 183,-235 342,-451 515,-686 85,-115 142,-214 231,-333l692 -1107c596,-1066 828,-2074 259,-3210 -415,-831 -922,-1304 -1740,-1717 -969,-490 -2072,-418 -3052,-29 -1138,453 -2111,1759 -2111,3004z"/>
</svg>
